# xmcd
#
# Track frame offsets: 
#        180
#        37186
#        66098
#        95147
#        110343
#        138800
#        163874
#        195503
#        224950
#        254621
#        282855
#        311980
#
# Disc length: 4455 seconds
#
# Revision: 2
# Processed by: cddbd v1.5.2PL0 Copyright (c) Steve Scherf et al.
# Submitted via: ExactAudioCopy v1.0b1
#
DISCID=c311650c
DTITLE=Various Artist - Flash Hits Vol 04
DYEAR=1996
DGENRE=Dance
TTITLE0=Art Of Noise - Kiss
TTITLE1=Depeche Mode - Strange Love
TTITLE2=OMD - Pandora's Box
TTITLE3=Inner City - Good Life
TTITLE4=Dead Or Alive - Come Home With Me Baby
TTITLE5=Lonnie Gordon - Happenin All Over Again
TTITLE6=Erasure - Blue Savanah
TTITLE7=Rick Astley - Take me To Your Heart
TTITLE8=Sonia - You'll Never Stop Me Loving You
TTITLE9=Video - Somebody
TTITLE10=When In Rome - The Promisse
TTITLE11=The Twins - Face To Face Heart To Heart
EXTD=
EXTT0=
EXTT1=
EXTT2=
EXTT3=
EXTT4=
EXTT5=
EXTT6=
EXTT7=
EXTT8=
EXTT9=
EXTT10=
EXTT11=
PLAYORDER=
